<?xml version="1.0" encoding="UTF-8" standalone="no"?>
<!DOCTYPE svg PUBLIC "-//W3C//DTD SVG 1.1//EN"
 "http://www.w3.org/Graphics/SVG/1.1/DTD/svg11.dtd">
<!-- Generated by graphviz version 2.43.0 (0)
 -->
<!-- Title: %3 Pages: 1 -->
<svg width="278pt" height="258pt"
 viewBox="0.00 0.00 277.80 257.81" xmlns="http://www.w3.org/2000/svg" xmlns:xlink="http://www.w3.org/1999/xlink">
<g id="graph0" class="graph" transform="scale(1 1) rotate(0) translate(4 253.81)">
<title>%3</title>
<polygon fill="white" stroke="transparent" points="-4,4 -4,-253.81 273.8,-253.81 273.8,4 -4,4"/>
<!-- A -->
<g id="node1" class="node">
<title>A</title>
<polygon fill="aqua" stroke="black" points="102.67,-212.65 63.37,-212.65 51.22,-250.03 39.08,-212.65 -0.22,-212.65 31.57,-189.55 19.43,-152.17 51.22,-175.27 83.02,-152.17 70.87,-189.55 102.67,-212.65"/>
<text text-anchor="middle" x="51.22" y="-197.4" font-family="Times,serif" font-size="14.00">A</text>
</g>
<!-- B -->
<g id="node2" class="node">
<title>B</title>
<polygon fill="aqua" stroke="black" points="175.96,-196.26 136.66,-196.26 124.52,-233.64 112.37,-196.26 73.07,-196.26 104.87,-173.16 92.72,-135.78 124.52,-158.88 156.31,-135.78 144.17,-173.16 175.96,-196.26"/>
<text text-anchor="middle" x="124.52" y="-181.01" font-family="Times,serif" font-size="14.00">B</text>
</g>
<!-- A&#45;&#45;B -->
<g id="edge1" class="edge">
<title>A&#45;&#45;B</title>
<path fill="none" stroke="red" d="M78.51,-195C78.68,-194.96 78.84,-194.92 79,-194.89"/>
<text text-anchor="middle" x="72.26" y="-200.94" font-family="Times,serif" font-size="20.00">1</text>
</g>
<!-- C -->
<g id="node3" class="node">
<title>C</title>
<polygon fill="aqua" stroke="black" points="125.55,-141.7 86.25,-141.7 74.1,-179.08 61.96,-141.7 22.66,-141.7 54.45,-118.6 42.31,-81.22 74.1,-104.32 105.9,-81.22 93.75,-118.6 125.55,-141.7"/>
<text text-anchor="middle" x="74.1" y="-126.45" font-family="Times,serif" font-size="14.00">C</text>
</g>
<!-- A&#45;&#45;C -->
<g id="edge2" class="edge">
<title>A&#45;&#45;C</title>
<path fill="none" stroke="red" d="M62.13,-167.29C63.46,-163.15 64.81,-158.98 66.09,-155"/>
<text text-anchor="middle" x="57.61" y="-145.14" font-family="Times,serif" font-size="20.00">4</text>
</g>
<!-- H -->
<g id="node4" class="node">
<title>H</title>
<polygon fill="aqua" stroke="black" points="255.15,-205.51 215.85,-205.51 203.71,-242.89 191.56,-205.51 152.26,-205.51 184.06,-182.4 171.91,-145.02 203.71,-168.13 235.5,-145.02 223.36,-182.4 255.15,-205.51"/>
<text text-anchor="middle" x="203.71" y="-190.26" font-family="Times,serif" font-size="14.00">H</text>
</g>
<!-- B&#45;&#45;H -->
<g id="edge4" class="edge">
<title>B&#45;&#45;H</title>
<path fill="none" stroke="red" d="M166.89,-189.66C168.95,-189.9 171,-190.14 173.02,-190.37"/>
<text text-anchor="middle" x="163.46" y="-196.02" font-family="Times,serif" font-size="20.00">2</text>
</g>
<!-- C&#45;&#45;B -->
<g id="edge3" class="edge">
<title>C&#45;&#45;B</title>
<path fill="none" stroke="red" d="M86.05,-143.08C90.24,-147.62 95.12,-152.9 99.96,-158.14"/>
<text text-anchor="middle" x="86.51" y="-134.61" font-family="Times,serif" font-size="20.00">2</text>
</g>
<!-- D -->
<g id="node5" class="node">
<title>D</title>
<polygon fill="aqua" stroke="black" points="193.52,-119.85 154.22,-119.85 142.08,-157.23 129.93,-119.85 90.63,-119.85 122.43,-96.75 110.28,-59.37 142.08,-82.47 173.87,-59.37 161.73,-96.75 193.52,-119.85"/>
<text text-anchor="middle" x="142.08" y="-104.6" font-family="Times,serif" font-size="14.00">D</text>
</g>
<!-- C&#45;&#45;D -->
<g id="edge6" class="edge">
<title>C&#45;&#45;D</title>
<path fill="none" stroke="red" d="M98.64,-122.26C101.08,-121.48 103.58,-120.68 106.1,-119.87"/>
<text text-anchor="middle" x="95.87" y="-105.06" font-family="Times,serif" font-size="20.00">1</text>
</g>
<!-- E -->
<g id="node6" class="node">
<title>E</title>
<polygon fill="aqua" stroke="black" points="147.53,-66.19 108.23,-66.19 96.08,-103.57 83.94,-66.19 44.64,-66.19 76.43,-43.09 64.29,-5.71 96.08,-28.81 127.88,-5.71 115.73,-43.09 147.53,-66.19"/>
<text text-anchor="middle" x="96.08" y="-50.94" font-family="Times,serif" font-size="14.00">E</text>
</g>
<!-- C&#45;&#45;E -->
<g id="edge7" class="edge">
<title>C&#45;&#45;E</title>
<path fill="none" stroke="red" d="M83.68,-97.25C85.3,-91.68 86.96,-85.98 88.52,-80.62"/>
<text text-anchor="middle" x="79.6" y="-72.93" font-family="Times,serif" font-size="20.00">3</text>
</g>
<!-- G -->
<g id="node8" class="node">
<title>G</title>
<polygon fill="aqua" stroke="black" points="270.02,-125.25 230.72,-125.25 218.58,-162.63 206.44,-125.25 167.14,-125.25 198.93,-102.14 186.79,-64.76 218.58,-87.87 250.37,-64.76 238.23,-102.14 270.02,-125.25"/>
<text text-anchor="middle" x="218.58" y="-110" font-family="Times,serif" font-size="14.00">G</text>
</g>
<!-- H&#45;&#45;G -->
<g id="edge13" class="edge">
<title>H&#45;&#45;G</title>
<path fill="none" stroke="red" d="M209.24,-164.07C210.4,-157.83 211.62,-151.24 212.79,-144.95"/>
<text text-anchor="middle" x="224.02" y="-138.51" font-family="Times,serif" font-size="20.00">14</text>
</g>
<!-- D&#45;&#45;B -->
<g id="edge5" class="edge">
<title>D&#45;&#45;B</title>
<path fill="none" stroke="red" d="M135.44,-137.19C134.2,-142.6 132.89,-148.27 131.63,-153.74"/>
<text text-anchor="middle" x="140.04" y="-129.47" font-family="Times,serif" font-size="20.00">9</text>
</g>
<!-- F -->
<g id="node7" class="node">
<title>F</title>
<polygon fill="aqua" stroke="black" points="227.81,-60.27 188.51,-60.27 176.37,-97.65 164.23,-60.27 124.93,-60.27 156.72,-37.16 144.58,0.22 176.37,-22.89 208.16,0.22 196.02,-37.16 227.81,-60.27"/>
<text text-anchor="middle" x="176.37" y="-45.01" font-family="Times,serif" font-size="14.00">F</text>
</g>
<!-- D&#45;&#45;F -->
<g id="edge12" class="edge">
<title>D&#45;&#45;F</title>
<path fill="none" stroke="red" d="M167.54,-64.06C167.62,-63.92 167.7,-63.79 167.78,-63.65"/>
<text text-anchor="middle" x="161.16" y="-69.85" font-family="Times,serif" font-size="20.00">3</text>
</g>
<!-- D&#45;&#45;G -->
<g id="edge11" class="edge">
<title>D&#45;&#45;G</title>
<path fill="none" stroke="red" d="M181.67,-111.09C183.13,-111.2 184.59,-111.3 186.03,-111.4"/>
<text text-anchor="middle" x="177.35" y="-117.25" font-family="Times,serif" font-size="20.00">1</text>
</g>
<!-- E&#45;&#45;D -->
<g id="edge8" class="edge">
<title>E&#45;&#45;D</title>
<path fill="none" stroke="red" d="M107.69,-68.18C110.35,-71.28 113.29,-74.71 116.28,-78.2"/>
<text text-anchor="middle" x="105.49" y="-57.19" font-family="Times,serif" font-size="20.00">1</text>
</g>
<!-- E&#45;&#45;F -->
<g id="edge9" class="edge">
<title>E&#45;&#45;F</title>
<path fill="none" stroke="red" d="M128.28,-52.26C131.07,-52.06 133.91,-51.85 136.76,-51.64"/>
<text text-anchor="middle" x="126.02" y="-35.95" font-family="Times,serif" font-size="20.00">1</text>
</g>
<!-- G&#45;&#45;F -->
<g id="edge10" class="edge">
<title>G&#45;&#45;F</title>
<path fill="none" stroke="red" d="M186.8,-64.78C186.71,-64.63 186.62,-64.49 186.52,-64.35"/>
<text text-anchor="middle" x="180.16" y="-48.56" font-family="Times,serif" font-size="20.00">6</text>
</g>
</g>
</svg>
